<?xml version="1.0" standalone="no"?><!DOCTYPE svg PUBLIC "-//W3C//DTD SVG 1.1//EN" "http://www.w3.org/Graphics/SVG/1.1/DTD/svg11.dtd"><svg t="1665146644077" class="icon" viewBox="0 0 1331 1024" version="1.1" xmlns="http://www.w3.org/2000/svg" p-id="27680" xmlns:xlink="http://www.w3.org/1999/xlink" width="259.9609375" height="200"><path d="M1120.56777188 242.7060762c-47.58200903 0-86.26348306 37.7956387-86.26348306 84.23871626 0 15.64975635 4.42917664 30.79332119 12.86570351 44.08085109-6.03211624 3.41679282-12.06423248 6.96013413-18.22289721 10.58784055-36.69888977 21.63969004-74.70544126 44.03866773-131.52544739 44.03866773-11.1362146 0-21.80842108-0.92801789-31.76352246-2.65750598-106.97515521-18.77127127-162.78277753-138.27466873-170.58656442-174.55173212a83.39506348 83.39506348 0 0 0 45.72597326-74.07270209c0-46.40089582-38.68147402-84.19653369-86.26348306-84.19653369-47.53982648 0-86.22130051 37.7956387-86.22129968 84.19653369 0 33.61955823 21.09131599 64.28633176 52.85483761 77.40513062-7.25541284 38.42837787-60.36334662 163.07805624-164.89190944 177.75761215a189.90621057 189.90621057 0 0 1-26.57505818 1.77166983c-56.65127508 0-95.45929678-22.44116025-132.95965676-44.12303284a1287.87794385 1287.87794385 0 0 0-19.53055811-11.13621542c3.54334131-9.28017883 5.31501196-19.06655 5.31501114-29.10601566 0-46.44307837-38.68147402-84.19653369-86.22129968-84.19653369-21.21786365 0-41.38116257 7.55069155-57.24183253 21.34441132l-5.52592473 5.14628173A82.50922898 82.50922898 0 0 0 110.125 346.93936032c0 45.43069455 37.0785336 82.59359408 83.18415069 84.15435113L405.27687768 933.82632205h505.7697604l220.82607945-523.82392657c42.89973706-5.48374219 74.87417229-40.79060513 74.8741723-83.05760302 0-46.44307837-38.63929148-84.23871624-86.17911795-84.23871626zM452.26833011 865.36390982L278.85552866 453.99888064l11.43149331 5.73683835c40.83278769 20.58512449 79.42989661 40.0313183 139.49796533 40.03131748 12.61260737 0 24.88775262-0.80147021 36.53015872-2.44659238 91.53631164-12.82352014 166.41048395-75.76000763 194.33538721-131.6098125 32.60717441 58.00111936 113.42909783 110.77159186 192.64808083 124.69186093a253.93944617 253.93944617 0 0 0 44.16521623 3.75425409c56.06071848 0 89.76464099-16.61995679 128.78357629-35.81305444l11.93768482-5.86338602-174.04554062 412.88360367H452.26833011z" p-id="27681"></path></svg>