<?xml version="1.0" standalone="no"?><!DOCTYPE svg PUBLIC "-//W3C//DTD SVG 1.1//EN" "http://www.w3.org/Graphics/SVG/1.1/DTD/svg11.dtd"><svg t="1660268003389" class="icon" viewBox="0 0 1024 1024" version="1.1" xmlns="http://www.w3.org/2000/svg" p-id="3748" xmlns:xlink="http://www.w3.org/1999/xlink" width="200" height="200"><defs><style type="text/css">@font-face { font-family: feedback-iconfont; src: url("//at.alicdn.com/t/font_1031158_u69w8yhxdu.woff2?t=1630033759944") format("woff2"), url("//at.alicdn.com/t/font_1031158_u69w8yhxdu.woff?t=1630033759944") format("woff"), url("//at.alicdn.com/t/font_1031158_u69w8yhxdu.ttf?t=1630033759944") format("truetype"); }
</style></defs><path d="M512 959.9c-248.4 0-450.6-202.1-450.6-450.6 0-159.2 85.4-308.2 222.8-388.9 24-14.1 54.7-6.1 68.8 17.9 14 23.9 6 54.7-17.9 68.7-106.9 62.7-173.2 178.5-173.2 302.2 0 193 157.1 350.1 350.1 350.1 193 0 350.1-157.1 350.1-350.1 0-123.7-66.4-239.5-173.2-302.2-23.9-14-32-44.7-17.9-68.7 14.1-23.9 44.8-31.9 68.8-17.9 137.5 80.7 222.8 229.7 222.8 388.9 0 248.4-202.1 450.6-450.6 450.6z" p-id="3749"></path><path d="M520.9 399.4c-27.7 0-50.2-22.5-50.2-50.2V114.3c0-27.7 22.5-50.2 50.2-50.2 27.7 0 50.2 22.5 50.2 50.2v234.8c0 27.8-22.4 50.3-50.2 50.3z" p-id="3750"></path></svg>