<?xml version="1.0" standalone="no"?><!DOCTYPE svg PUBLIC "-//W3C//DTD SVG 1.1//EN" "http://www.w3.org/Graphics/SVG/1.1/DTD/svg11.dtd"><svg t="1659583532952" class="icon" viewBox="0 0 1024 1024" version="1.1" xmlns="http://www.w3.org/2000/svg" p-id="22925" xmlns:xlink="http://www.w3.org/1999/xlink" width="200" height="200"><defs><style type="text/css">@font-face { font-family: feedback-iconfont; src: url("//at.alicdn.com/t/font_1031158_u69w8yhxdu.woff2?t=1630033759944") format("woff2"), url("//at.alicdn.com/t/font_1031158_u69w8yhxdu.woff?t=1630033759944") format("woff"), url("//at.alicdn.com/t/font_1031158_u69w8yhxdu.ttf?t=1630033759944") format("truetype"); }
</style></defs><path d="M778.24 222.108672v-51.2c0-9.556992 3.072-17.408 9.216-23.552s13.824-9.216 23.04-9.216 16.896 3.072 23.04 9.216 9.556992 13.995008 10.24 23.552v152.576c-0.683008 8.875008-4.096 16.384-10.24 22.528s-13.652992 9.556992-22.528 10.24H658.432c-9.556992-0.683008-17.408-4.096-23.552-10.24s-9.216-13.824-9.216-23.04 3.072-16.896 9.216-23.04 13.995008-9.216 23.552-9.216h95.232c-53.248-55.979008-115.883008-89.940992-187.904-101.888-72.020992-11.947008-141.824-0.171008-209.408 35.328-66.900992 36.864-115.028992 88.747008-144.384 155.648s-35.156992 137.899008-17.408 212.992c19.796992 73.728 58.539008 132.948992 116.224 177.664s124.756992 67.755008 201.216 69.12c92.843008-2.048 169.984-33.963008 231.424-95.744s93.524992-139.092992 96.256-231.936h65.536c-2.731008 111.275008-41.131008 203.947008-115.2 278.016S623.275008 902.385664 512 905.116672c-111.275008-2.731008-203.947008-41.131008-278.016-115.2S121.515008 623.17568 118.784 511.900672c0.683008-79.188992 21.844992-150.868992 63.488-215.04s98.644992-112.299008 171.008-144.384c73.044992-31.403008 147.284992-40.788992 222.72-28.16 75.435008 12.628992 142.848 45.227008 202.24 97.792z" p-id="22926"></path></svg>